<svg width="24" height="24" viewBox="0 0 24 24" fill="none" xmlns="http://www.w3.org/2000/svg">
    <path fill-rule="evenodd" clip-rule="evenodd"
          d="M4.97857 19.8381C4.68568 20.131 4.21081 20.131 3.91791 19.8381C3.62502 19.5452 3.62502 19.0703 3.91791 18.7774L5.85695 16.8384C4.59098 15.9241 3.53766 14.7348 2.78504 13.3586C2.40498 12.6636 2.40499 11.8235 2.78506 11.1286C4.56415 7.87548 8.02346 5.66674 12 5.66674C13.4815 5.66674 14.8912 5.97333 16.169 6.5263L18.5333 4.16205C18.8262 3.86916 19.3011 3.86916 19.594 4.16205C19.8868 4.45495 19.8868 4.92982 19.594 5.22271L4.97857 19.8381ZM13.7056 8.98975C13.1959 8.72204 12.6157 8.57058 12 8.57058C9.97141 8.57058 8.32692 10.2151 8.32692 12.2437C8.32692 12.8593 8.47839 13.4396 8.74609 13.9493L9.89808 12.7973C9.85165 12.6205 9.82692 12.435 9.82692 12.2437C9.82692 11.0435 10.7998 10.0706 12 10.0706C12.1913 10.0706 12.3769 10.0953 12.5536 10.1417L13.7056 8.98975ZM12 18.8206C10.7844 18.8206 9.61704 18.6142 8.53128 18.2346L10.9898 15.7761C11.3107 15.8677 11.6496 15.9167 12 15.9167C14.0286 15.9167 15.6731 14.2722 15.6731 12.2437C15.6731 11.8933 15.624 11.5544 15.5324 11.2334L18.6922 8.0737C19.7149 8.92018 20.574 9.95667 21.215 11.1287C21.595 11.8237 21.595 12.6638 21.2149 13.3587C19.4358 16.6118 15.9765 18.8206 12 18.8206Z"
          fill="#C8C8C8"/>
</svg>
