<svg width="18" height="18" viewBox="0 0 18 18" fill="none" xmlns="http://www.w3.org/2000/svg">
    <path fill-rule="evenodd" clip-rule="evenodd"
          d="M7.98649 13.3294C10.9476 13.3294 13.348 10.929 13.348 7.96793C13.348 5.00686 10.9476 2.60645 7.98649 2.60645C5.02542 2.60645 2.625 5.00686 2.625 7.96793C2.625 10.929 5.02542 13.3294 7.98649 13.3294ZM7.98649 14.4544C11.5689 14.4544 14.473 11.5503 14.473 7.96793C14.473 4.38554 11.5689 1.48145 7.98649 1.48145C4.4041 1.48145 1.5 4.38554 1.5 7.96793C1.5 11.5503 4.4041 14.4544 7.98649 14.4544Z"
          fill="#C8C8C8"/>
    <path fill-rule="evenodd" clip-rule="evenodd"
          d="M12.048 12.4011C12.2677 12.1814 12.6238 12.1814 12.8435 12.4011L16.8975 16.4552C17.1172 16.6749 17.1172 17.031 16.8975 17.2507C16.6779 17.4703 16.3217 17.4703 16.102 17.2507L12.048 13.1966C11.8283 12.9769 11.8283 12.6207 12.048 12.4011Z"
          fill="#C8C8C8"/>
</svg>
