<svg width="24" height="24" viewBox="0 0 24 24" fill="none" xmlns="http://www.w3.org/2000/svg">
    <path fill-rule="evenodd" clip-rule="evenodd"
          d="M12 5.4231C8.02346 5.4231 4.56415 7.63184 2.78506 10.8849C2.40499 11.5799 2.40498 12.42 2.78504 13.115C4.56411 16.3681 8.02347 18.5769 12 18.5769C15.9765 18.5769 19.4358 16.3682 21.2149 13.1151C21.595 12.4201 21.595 11.58 21.215 10.8851C19.4359 7.6319 15.9765 5.4231 12 5.4231ZM12 9.82694C10.7998 9.82694 9.82692 10.7999 9.82692 12C9.82692 13.2002 10.7998 14.1731 12 14.1731C12.6534 14.1731 13.2394 13.8848 13.6377 13.4284C12.9799 13.2858 12.4872 12.7005 12.4872 12C12.4872 11.2996 12.9799 10.7142 13.6377 10.5716C13.2394 10.1153 12.6534 9.82694 12 9.82694ZM8.32692 12C8.32692 9.97143 9.97142 8.32694 12 8.32694C14.0286 8.32694 15.6731 9.97143 15.6731 12C15.6731 14.0286 14.0286 15.6731 12 15.6731C9.97142 15.6731 8.32692 14.0286 8.32692 12Z"
          fill="#949494"/>
</svg>
